
<svg width="40" height="40" viewBox="0 0 32 32" fill="none" xmlns="http://www.w3.org/2000/svg">
<path fill-rule="evenodd" clip-rule="evenodd" d="M15.0003 0.0688681C12.183 0.387743 9.48008 1.83418 7.66983 3.99187C5.69183 6.34931 4.73464 9.43981 5.06371 12.4059C5.45358 15.9201 7.1572 19.6391 10.8227 24.9781C11.173 25.4884 12.1811 26.9184 13.0628 28.1559C13.9445 29.3934 14.8795 30.716 15.1406 31.0951C15.6374 31.8162 15.8624 31.9996 16.2503 31.9996C16.6381 31.9996 16.8631 31.8162 17.3601 31.0951C17.6213 30.716 18.5669 29.3793 19.4614 28.1246C22.8189 23.4149 24.3577 20.9861 25.5304 18.5446C27.8471 13.7218 28.1025 9.91087 26.3481 6.34337C25.8573 5.34549 25.3573 4.58974 24.674 3.81324C22.2704 1.08174 18.6008 -0.338632 15.0003 0.0688681ZM17.6565 5.80868C19.6155 6.31974 21.1572 7.85931 21.6968 9.84337C21.8071 10.2493 21.8327 10.5139 21.8327 11.2496C21.8327 11.9854 21.8071 12.2499 21.6968 12.6559C21.1576 14.6382 19.6364 16.1593 17.6565 16.6956C16.9976 16.8741 15.6243 16.8922 14.9797 16.7309C12.9285 16.2177 11.3548 14.6821 10.8038 12.6559C10.6934 12.2499 10.6678 11.9854 10.6678 11.2496C10.6678 10.5139 10.6934 10.2493 10.8038 9.84337C11.3702 7.7605 13.0083 6.20556 15.1253 5.74131C15.8162 5.58981 16.9314 5.61949 17.6565 5.80868ZM15.4378 7.59712C13.777 7.95512 12.5025 9.54112 12.5025 11.2496C12.5025 12.9741 13.7825 14.5515 15.469 14.9056C16.7412 15.1727 17.9525 14.8087 18.881 13.8803C20.3705 12.3907 20.3705 10.1085 18.881 8.61893C17.9503 7.68831 16.7152 7.32174 15.4378 7.59712Z" fill="#1B932A"/>
</svg>
