<svg width="55" height="42" viewBox="0 0 32 32" fill="none" xmlns="http://www.w3.org/2000/svg">
    <path fill-rule="evenodd" clip-rule="evenodd" d="M15.5791 0.0137941C14.5481 0.168177 13.6012 0.833968 13.1524 1.71994C12.6004 2.80952 12.6847 3.86229 13.4056 4.88175C13.655 5.2346 14.2145 5.70024 14.6271 5.89825C15.5601 6.34625 16.3696 6.34539 17.3296 5.89546C18.2072 5.48418 18.8738 4.7057 19.1065 3.82023C19.5214 2.24147 18.5233 0.594053 16.861 0.113818C16.565 0.0283372 15.853 -0.0272425 15.5791 0.0137941ZM13.123 7.0184C12.3964 7.22958 12.1184 7.34049 11.3724 7.71653C10.6946 8.05825 9.95571 8.55333 9.47537 8.98755L9.15154 9.28029L10.8496 10.9365C11.7835 11.8473 12.5596 12.5926 12.5743 12.5926C12.589 12.5926 12.7732 12.4665 12.9836 12.3125C13.9662 11.5931 15.3178 11.2308 16.4997 11.3698C17.5827 11.4972 18.2506 11.7718 19.3062 12.5235C19.4274 12.6099 19.4296 12.6079 21.1506 10.9359L22.8736 9.26184L22.6752 9.0897C22.0092 8.51184 20.965 7.85281 20.1251 7.48038C19.6785 7.28226 18.5895 6.9169 18.3634 6.88924C18.2397 6.87408 18.0845 7.00452 17.1586 7.90158C16.5279 8.5126 16.0556 8.9313 15.9971 8.9313C15.9384 8.9313 15.4614 8.50792 14.8226 7.88886C14.2309 7.31552 13.7359 6.84754 13.7223 6.84886C13.7089 6.85018 13.4392 6.92646 13.123 7.0184ZM7.71951 10.9468C6.53935 12.694 5.93652 14.8007 6.00529 16.9376C6.04689 18.2308 6.30593 19.249 6.89987 20.4539C7.41627 21.5014 7.89253 22.1516 11.7386 27.0596C12.7248 28.3182 13.9524 29.8924 14.4666 30.5579C15.005 31.2549 15.4722 31.81 15.5686 31.8672C15.8325 32.0238 16.0345 32.04 16.2999 31.9258C16.4982 31.8404 16.6232 31.7105 17.0993 31.0948C17.4097 30.6933 18.6752 29.0721 19.9116 27.4919C22.7402 23.8766 24.1966 21.9693 24.5406 21.4299C25.15 20.4742 25.6246 19.3059 25.849 18.2088C25.9917 17.5111 26.0455 16.0924 25.9569 15.3596C25.8092 14.1377 25.4653 12.9865 24.9532 12.0008C24.6529 11.4226 24.0989 10.5585 24.0285 10.5585C24.0089 10.5585 23.2008 11.3291 22.2326 12.2708L20.4724 13.9832L20.5932 14.2159C21.1258 15.2415 21.2039 16.7112 20.788 17.8813C20.0239 20.0309 17.7778 21.4342 15.4971 21.1869C14.6975 21.1002 14.1221 20.9161 13.444 20.5302C11.7262 19.5524 10.7554 17.7046 10.9568 15.7958C11.0134 15.2587 11.0958 14.944 11.3339 14.3557L11.4949 13.9578L9.74229 12.2523L7.98967 10.5468L7.71951 10.9468Z" fill="#FF0000"/>
    <rect x="4" y="1.81018" width="0.712941" height="36.2005" transform="rotate(-37.2448 4 1.81018)" fill="white"/>
    <rect x="4.42932" y="1.46094" width="0.76167" height="36.2236" transform="rotate(-37.2448 4.42932 1.46094)" fill="#FF0000"/>
</svg>
