<svg width="40" height="40" viewBox="0 0 32 32" fill="none" xmlns="http://www.w3.org/2000/svg">
<path fill-rule="evenodd" clip-rule="evenodd" d="M11.7976 0.126638C11.3847 0.344638 11.3125 0.5842 11.3125 1.73645V2.73014L10.6334 3.00901L9.95431 3.28789L9.23906 2.58639C8.42156 1.78464 8.19987 1.66964 7.73438 1.80551C7.50513 1.87245 7.08625 2.26564 4.67706 4.67483C2.26787 7.08401 1.87469 7.50289 1.80775 7.73214C1.67187 8.19764 1.78637 8.41764 2.59419 9.24339C3.27363 9.93789 3.2985 9.9727 3.22169 10.1228C3.17775 10.2087 3.05006 10.5111 2.93794 10.7946L2.73419 11.3103H1.73962C0.574125 11.3103 0.343812 11.3814 0.125813 11.8086C0.0036875 12.0481 0 12.1698 0 15.9978C0 19.8257 0.0036875 19.9474 0.125813 20.1869C0.343812 20.6141 0.574125 20.6853 1.73962 20.6853H2.73419L2.93794 21.2009C3.05006 21.4845 3.17775 21.7868 3.22169 21.8728C3.2985 22.0228 3.27363 22.0576 2.59419 22.7521C1.78637 23.5779 1.67187 23.7979 1.80775 24.2634C1.87469 24.4926 2.26787 24.9115 4.67706 27.3207C7.08625 29.7299 7.50513 30.1231 7.73438 30.19C8.19987 30.3259 8.42156 30.2109 9.23906 29.4091L9.95431 28.7076L10.6334 28.9865L11.3125 29.2654V30.2591C11.3125 31.4236 11.3837 31.654 11.8109 31.872C12.0504 31.9941 12.1721 31.9978 16 31.9978C19.8279 31.9978 19.9496 31.9941 20.1891 31.872C20.6164 31.654 20.6875 31.4236 20.6875 30.2581V29.2636L21.2031 29.0598C21.4868 28.9477 21.7891 28.82 21.875 28.7761C22.0251 28.6993 22.0599 28.7241 22.7544 29.4036C23.5801 30.2114 23.8001 30.3259 24.2656 30.19C24.4949 30.1231 24.9137 29.7299 27.3229 27.3207C29.7321 24.9115 30.1253 24.4926 30.1922 24.2634C30.3281 23.7979 30.2131 23.5762 29.4114 22.7587L28.7099 22.0435L28.9888 21.3643L29.2676 20.6853H30.2613C31.4258 20.6853 31.6562 20.6141 31.8742 20.1869C31.9963 19.9474 32 19.8257 32 15.9978C32 12.1698 31.9963 12.0481 31.8742 11.8086C31.6562 11.3815 31.4258 11.3103 30.2613 11.3103H29.2676L28.9888 10.6312L28.7099 9.95208L29.4114 9.23683C30.2131 8.41933 30.3281 8.19764 30.1922 7.73214C30.1253 7.50289 29.7321 7.08401 27.3229 4.67483C24.9137 2.26564 24.4949 1.87245 24.2656 1.80551C23.8001 1.66964 23.5801 1.78414 22.7544 2.59195C22.0599 3.27139 22.0251 3.29626 21.875 3.21945C21.7891 3.17551 21.4868 3.04783 21.2031 2.9357L20.6875 2.73195V1.73739C20.6875 0.571887 20.6164 0.341575 20.1891 0.123575C19.9494 0.001325 19.8308 -0.002175 15.9869 0.0005125C12.1721 0.0032 12.0229 0.0077 11.7976 0.126638ZM17.6236 7.71551C18.6737 7.92658 19.8052 8.40158 20.75 9.02795C21.353 9.42776 22.57 10.6448 22.9698 11.2478C23.6076 12.2097 24.0527 13.2821 24.2928 14.4353C24.4464 15.1725 24.4464 16.8231 24.2928 17.5603C23.9235 19.3336 23.1738 20.7231 21.915 21.9671C20.6582 23.2092 19.3167 23.9253 17.5625 24.2906C16.8253 24.4441 15.1746 24.4441 14.4375 24.2906C12.6678 23.922 11.2983 23.1818 10.03 21.9081C8.794 20.6669 8.07306 19.3175 7.70719 17.5603C7.55363 16.8231 7.55363 15.1725 7.70719 14.4353C8.07269 12.6799 8.79162 11.3333 10.03 10.0845C11.4389 8.66376 13.1115 7.84764 15.125 7.59845C15.5442 7.54658 17.1596 7.62226 17.6236 7.71551ZM15.2718 9.52401C13.9018 9.85633 12.875 11.157 12.875 12.5603C12.875 14.2471 14.3132 15.6853 16 15.6853C17.6868 15.6853 19.125 14.2471 19.125 12.5603C19.125 10.8484 17.6662 9.41495 15.9501 9.44058C15.7541 9.44351 15.4489 9.48101 15.2718 9.52401ZM11.794 16.3685C11.3126 16.8788 10.9187 17.6217 10.7812 18.279C10.7251 18.5472 10.6892 19.0742 10.6886 19.6409C10.6873 20.7291 10.7648 20.9696 11.1859 21.1845C11.4264 21.3071 11.5457 21.3103 16 21.3103C20.4543 21.3103 20.5736 21.3071 20.8141 21.1845C21.2352 20.9696 21.3127 20.7291 21.3114 19.6409C21.3108 19.0742 21.2749 18.5472 21.2188 18.279C21.0813 17.6217 20.6874 16.8788 20.206 16.3685C19.9812 16.1302 19.7762 15.9353 19.7503 15.9353C19.7244 15.9353 19.5802 16.0507 19.4298 16.1917C17.5083 17.9933 14.4681 17.9929 12.5754 16.1908C12.4278 16.0503 12.2836 15.9353 12.2549 15.9353C12.2261 15.9353 12.0187 16.1302 11.794 16.3685Z" fill="#1B932A"/>
</svg>
