<svg width="45" height="45" viewBox="0 0 32 32" fill="none" xmlns="http://www.w3.org/2000/svg">
<path fill-rule="evenodd" clip-rule="evenodd" d="M14.7393 4.0173C14.5846 4.03042 14.1065 4.07086 13.6768 4.10723C12.6523 4.19398 10.9998 4.45036 10.2666 4.63636C9.1364 4.92305 8.17227 5.4753 7.32809 6.31948C6.13696 7.51061 5.54334 8.88911 5.14359 11.392C5.00665 12.2492 4.95346 14.4532 5.04702 15.3895C5.18996 16.8192 5.5864 18.5039 5.99034 19.3979C6.77096 21.1257 8.39115 22.4974 10.208 22.9686C11.1921 23.2239 13.1412 23.4949 14.5986 23.5791L15.3643 23.6234V24.8646V26.1057H14.2049C12.9601 26.1057 12.8512 26.1281 12.5557 26.4444C12.3275 26.6886 12.2996 27.2449 12.5006 27.5432C12.8026 27.9914 12.7079 27.9805 16.3018 27.9805C19.8956 27.9805 19.8009 27.9914 20.103 27.5432C20.2263 27.3602 20.2462 27.2652 20.225 26.9619C20.2026 26.6434 20.1715 26.5712 19.9685 26.3681L19.7375 26.1369L18.4884 26.1177L17.2393 26.0984V24.8612V23.6241L17.9736 23.5817C19.4526 23.4964 21.3659 23.2328 22.3955 22.9724C23.8356 22.6082 25.2278 21.6074 26.0885 20.3175C26.6853 19.4229 26.9926 18.5942 27.3004 17.0482C27.5653 15.7174 27.6356 14.8459 27.5976 13.3615C27.5601 11.8937 27.455 11.1071 27.115 9.75161C26.5593 7.53598 25.4656 6.07061 23.6729 5.1398C22.7731 4.67255 21.4521 4.36917 19.3018 4.13573C18.4534 4.04361 15.3728 3.96367 14.7393 4.0173ZM15.3218 11.5477C15.7106 11.6556 15.9958 11.9794 16.8334 13.2637C17.27 13.933 17.6523 14.4807 17.6832 14.4807C17.7141 14.4807 18.2768 13.9814 18.9336 13.3713C19.5904 12.7612 20.188 12.2277 20.2616 12.186C20.8693 11.8415 21.5744 12.6447 21.1921 13.2459C21.089 13.408 19.1259 15.2555 18.5782 15.706C17.9193 16.2478 17.2486 16.2434 16.7149 15.6938C16.587 15.5622 16.1421 14.925 15.7263 14.278C15.3104 13.631 14.9471 13.1095 14.919 13.1193C14.8908 13.129 14.3995 13.5729 13.8271 14.1057C12.3847 15.4484 12.342 15.4807 12.0069 15.4807C11.5443 15.4807 11.2356 15.0714 11.3278 14.5802C11.3598 14.4097 11.5425 14.2037 12.2566 13.5325C13.9216 11.9677 14.1455 11.774 14.458 11.628C14.8056 11.4655 14.9706 11.4501 15.3218 11.5477Z" fill="#FF0000"/>
<rect width="0.646472" height="31.3956" transform="matrix(0.841237 -0.540667 0.668697 0.743535 5 3.65625)" fill="white"/>
<rect width="0.690657" height="31.4156" transform="matrix(0.841237 -0.540667 0.668697 0.743535 5.41138 3.37341)" fill="#FF0000"/>
</svg>
