<svg width="32" height="32" viewBox="0 0 32 32" fill="none" xmlns="http://www.w3.org/2000/svg">
<path d="M16 0C11.7724 0.051005 7.73228 1.75309 4.74269 4.74269C1.75309 7.73228 0.051005 11.7724 0 16C0.051005 20.2276 1.75309 24.2677 4.74269 27.2573C7.73228 30.2469 11.7724 31.949 16 32C20.2276 31.949 24.2677 30.2469 27.2573 27.2573C30.2469 24.2677 31.949 20.2276 32 16C31.949 11.7724 30.2469 7.73228 27.2573 4.74269C24.2677 1.75309 20.2276 0.051005 16 0V0ZM25.1429 17.1429H17.1429V25.1429H14.8571V17.1429H6.85714V14.8571H14.8571V6.85714H17.1429V14.8571H25.1429V17.1429Z" fill="white"/>
</svg>
