<svg width="30" height="32" viewBox="0 0 30 32" fill="none" xmlns="http://www.w3.org/2000/svg">
<path d="M14.6173 1.10225e-08C15.9291 -8.58813e-05 17.1912 0.501814 18.1448 1.40274C19.0983 2.30367 19.6709 3.53532 19.7452 4.84504L19.7531 5.1358H28.0494C28.3497 5.13589 28.6387 5.24997 28.8581 5.45497C29.0776 5.65997 29.211 5.94062 29.2315 6.24021C29.2519 6.53979 29.1579 6.83598 28.9684 7.06892C28.7789 7.30186 28.5081 7.45418 28.2106 7.49511L28.0494 7.50617H26.7915L24.7688 28.081C24.6675 29.1067 24.2048 30.0631 23.4635 30.7792C22.7222 31.4953 21.7504 31.9247 20.7218 31.9905L20.4437 32H8.79092C7.75974 32 6.76218 31.6333 5.9765 30.9654C5.19083 30.2976 4.66824 29.3721 4.50212 28.3544L4.46578 28.0794L2.44148 7.50617H1.18519C0.898785 7.50616 0.622077 7.40244 0.406233 7.2142C0.190389 7.02595 0.0500121 6.76591 0.0110617 6.48217L0 6.32099C1.20777e-05 6.03459 0.103732 5.75788 0.291978 5.54204C0.480224 5.32619 0.740261 5.18581 1.024 5.14686L1.18519 5.1358H9.48148C9.48148 3.7737 10.0226 2.46739 10.9857 1.50424C11.9489 0.541092 13.2552 1.10225e-08 14.6173 1.10225e-08ZM24.4101 7.50617H4.82291L6.82509 27.8471C6.86942 28.301 7.06943 28.7255 7.39117 29.0487C7.71291 29.3719 8.13656 29.5738 8.59022 29.6201L8.79092 29.6296H20.4437C21.3918 29.6296 22.1962 28.958 22.3795 28.0462L22.4111 27.8471L24.4085 7.50617H24.4101ZM17.3827 11.8519C17.6691 11.8519 17.9458 11.9556 18.1617 12.1438C18.3775 12.3321 18.5179 12.5921 18.5568 12.8759L18.5679 13.037V24.0988C18.5678 24.3991 18.4537 24.6881 18.2487 24.9075C18.0437 25.1269 17.7631 25.2604 17.4635 25.2808C17.1639 25.3013 16.8677 25.2073 16.6348 25.0178C16.4019 24.8283 16.2495 24.5574 16.2086 24.26L16.1975 24.0988V13.037C16.1975 12.7227 16.3224 12.4213 16.5447 12.199C16.7669 11.9767 17.0684 11.8519 17.3827 11.8519ZM11.8519 11.8519C12.1383 11.8519 12.415 11.9556 12.6308 12.1438C12.8467 12.3321 12.987 12.5921 13.026 12.8759L13.037 13.037V24.0988C13.0369 24.3991 12.9229 24.6881 12.7179 24.9075C12.5129 25.1269 12.2322 25.2604 11.9326 25.2808C11.6331 25.3013 11.3369 25.2073 11.1039 25.0178C10.871 24.8283 10.7187 24.5574 10.6777 24.26L10.6667 24.0988V13.037C10.6667 12.7227 10.7915 12.4213 11.0138 12.199C11.2361 11.9767 11.5375 11.8519 11.8519 11.8519ZM14.6173 2.37037C13.9233 2.3704 13.2546 2.63138 12.7441 3.10152C12.2335 3.57166 11.9184 4.21657 11.8613 4.90825L11.8519 5.1358H17.3827C17.3827 4.40236 17.0914 3.69897 16.5727 3.18035C16.0541 2.66173 15.3507 2.37037 14.6173 2.37037Z" fill="#FF0000"/>
</svg>
