<svg width="40" height="30" viewBox="0 0 40 32" fill="none" xmlns="http://www.w3.org/2000/svg">
<path d="M5.94349 29.8303C5.94349 31.0265 6.91346 31.9971 8.10967 31.9971H31.7776C32.1292 31.9971 32.4482 31.8939 32.7414 31.7453L16.5556 19.0181C10.7058 19.1681 5.94349 23.943 5.94349 29.8303V29.8303ZM39.4236 29.3178L22.1055 15.6995C25.5235 14.7895 28.054 11.7027 28.054 7.99973C27.9428 3.58176 24.4179 0 19.943 0C15.6369 0 12.1058 3.49551 12.0183 7.83724L2.43111 0.318739C2.15049 0.104497 1.82425 0 1.50176 0C1.05678 0 0.615231 0.197243 0.320366 0.574168C-0.191305 1.22665 -0.0780587 2.16974 0.574232 2.68035L37.5737 31.6802C38.2299 32.1929 39.1711 32.0757 39.6792 31.4253C40.1924 30.774 40.0736 29.8303 39.4236 29.3178Z" fill="#ff0000"/>
</svg>
