<svg width="38" height="38" viewBox="0 0 32 32" fill="none" xmlns="http://www.w3.org/2000/svg">
<g clip-path="url(#clip0_228_47)">
<path d="M30.3174 16.8257C30.2472 17.0016 30.1609 17.1706 30.0597 17.3304C29.7111 17.8505 29.3473 18.34 28.9986 18.8601C28.9163 19.0716 28.9176 19.3069 29.0022 19.5176C29.0868 19.7282 29.2483 19.898 29.4534 19.992L31.2573 20.3132C31.7878 20.405 32 20.6344 32 21.1545C32 21.9346 32 22.6841 32 23.4795C32 23.9996 31.803 24.2137 31.2876 24.3055L29.4382 24.6267C29.3341 24.6702 29.2396 24.7341 29.1602 24.8147C29.0808 24.8954 29.0181 24.9912 28.9758 25.0965C28.9335 25.2019 28.9123 25.3147 28.9137 25.4284C28.915 25.542 28.9387 25.6543 28.9835 25.7586L30.0749 27.2883C30.1467 27.3621 30.2019 27.4508 30.2366 27.5481C30.2714 27.6455 30.2849 27.7492 30.2763 27.8523C30.2677 27.9554 30.2371 28.0555 30.1866 28.1455C30.1362 28.2356 30.067 28.3136 29.9839 28.3743C29.4382 28.9454 28.8925 29.496 28.3468 30.0263C28.2881 30.1073 28.2129 30.1746 28.1262 30.2239C28.0396 30.2731 27.9435 30.3031 27.8445 30.3118C27.7454 30.3205 27.6456 30.3077 27.5519 30.2743C27.4581 30.2409 27.3725 30.1876 27.3008 30.1181L25.785 29.0014C25.6831 28.9548 25.5727 28.9302 25.4608 28.9291C25.349 28.928 25.2381 28.9505 25.1354 28.9951C25.0327 29.0398 24.9403 29.1056 24.8642 29.1883C24.7881 29.271 24.73 29.3689 24.6935 29.4756C24.5874 30.1181 24.451 30.7452 24.36 31.3877C24.3583 31.4801 24.3378 31.5713 24.2996 31.6554C24.2614 31.7395 24.2065 31.8147 24.1382 31.8765C24.0699 31.9382 23.9898 31.985 23.9028 32.0141C23.8157 32.0432 23.7237 32.0538 23.6324 32.0454H21.2222C20.7523 32.0454 20.5249 31.8159 20.4491 31.3265L20.1762 29.6286C20.1644 29.4889 20.1154 29.3551 20.0346 29.2411C19.9537 29.1271 19.8439 29.0372 19.7167 28.9809C19.5895 28.9245 19.4497 28.9038 19.3118 28.9209C19.1739 28.938 19.0431 28.9922 18.9332 29.0779L17.4173 30.1334C17.3474 30.1974 17.2651 30.2461 17.1755 30.2764C17.086 30.3066 16.9912 30.3178 16.8971 30.3092C16.8031 30.3005 16.7118 30.2723 16.6292 30.2262C16.5465 30.1802 16.4742 30.1173 16.4169 30.0416C15.8408 29.4756 15.28 28.9097 14.7191 28.3284C14.6481 28.2653 14.5913 28.1876 14.5524 28.1005C14.5134 28.0135 14.4933 27.9191 14.4933 27.8236C14.4933 27.7281 14.5134 27.6338 14.5524 27.5467C14.5913 27.4597 14.6481 27.382 14.7191 27.3189L15.8105 25.7892C15.8642 25.6823 15.8938 25.5647 15.897 25.4449C15.9002 25.325 15.8771 25.206 15.8293 25.0963C15.7814 24.9865 15.7101 24.8889 15.6203 24.8103C15.5306 24.7318 15.4247 24.6743 15.3103 24.642L13.4609 24.3055C13.3698 24.304 13.2801 24.2832 13.1974 24.2446C13.1148 24.2059 13.0411 24.1502 12.9811 24.081C12.9211 24.0118 12.8762 23.9307 12.8491 23.8429C12.8221 23.7551 12.8137 23.6626 12.8243 23.5713V21.0321C12.8243 20.5426 13.0213 20.3438 13.5216 20.252L15.28 19.8849C15.4746 19.7833 15.6271 19.6153 15.7104 19.4108C15.7937 19.2063 15.8023 18.9786 15.7347 18.7683L14.6736 17.2387C14.5934 17.1632 14.531 17.0704 14.4913 16.9673C14.4516 16.8641 14.4355 16.7532 14.4443 16.6429C14.453 16.5325 14.4864 16.4256 14.5418 16.3301C14.5973 16.2346 14.6734 16.153 14.7646 16.0914L16.2804 14.5618C16.6897 14.1641 16.9323 14.1335 17.387 14.4547L18.9029 15.5102C19.115 15.6014 19.3536 15.6079 19.5702 15.5284C19.7869 15.4489 19.9656 15.2893 20.0701 15.0819C20.1762 14.4853 20.2823 13.8888 20.3733 13.2922C20.4643 12.6957 20.6765 12.4968 21.298 12.4968H23.496C24.0569 12.4968 24.2388 12.6498 24.3449 13.2005C24.451 13.7511 24.5571 14.4241 24.6784 15.036C24.7719 15.2471 24.941 15.4148 25.1518 15.5056C25.3626 15.5963 25.5995 15.6034 25.8153 15.5255L27.3312 14.4241C27.4003 14.3567 27.4828 14.3048 27.5733 14.2718C27.6637 14.2388 27.7601 14.2255 27.856 14.2327C27.9519 14.2399 28.0452 14.2675 28.1298 14.3137C28.2144 14.3599 28.2883 14.4236 28.3468 14.5006L30.0597 16.2444C30.171 16.4257 30.2576 16.6212 30.3174 16.8257V16.8257ZM22.3439 26.1869C22.8476 26.1869 23.3463 26.0868 23.8116 25.8924C24.2769 25.6979 24.6997 25.4128 25.0558 25.0535C25.4119 24.6941 25.6944 24.2675 25.8872 23.798C26.0799 23.3284 26.1791 22.8252 26.1791 22.317C26.1791 21.8088 26.0799 21.3056 25.8872 20.836C25.6944 20.3665 25.4119 19.9399 25.0558 19.5805C24.6997 19.2212 24.2769 18.9361 23.8116 18.7416C23.3463 18.5472 22.8476 18.4471 22.3439 18.4471C21.8403 18.4471 21.3416 18.5472 20.8763 18.7416C20.411 18.9361 19.9882 19.2212 19.6321 19.5805C19.2759 19.9399 18.9934 20.3665 18.8007 20.836C18.608 21.3056 18.5088 21.8088 18.5088 22.317C18.5088 22.8252 18.608 23.3284 18.8007 23.798C18.9934 24.2675 19.2759 24.6941 19.6321 25.0535C19.9882 25.4128 20.411 25.6979 20.8763 25.8924C21.3416 26.0868 21.8403 26.1869 22.3439 26.1869V26.1869Z" fill="#FF0000"/>
<path d="M3.24397 21.7969C1.29522 19.5663 0.151888 16.736 0 13.7664H6.45762L7.09428 19.426L3.24397 21.7969Z" fill="#FF0000"/>
<path d="M3.21365 4.42041C4.35658 5.32316 5.60989 6.07374 6.9427 6.65366C6.99706 6.6939 7.04072 6.74708 7.06981 6.80845C7.0989 6.86983 7.11252 6.93751 7.10944 7.00547C6.89722 8.76453 6.65468 10.5389 6.4273 12.3438H0C0.169133 9.41579 1.29984 6.62796 3.21365 4.42041V4.42041Z" fill="#FF0000"/>
<path d="M25.876 13.7664C25.876 13.4451 25.7548 13.1086 25.679 12.7874C25.5904 12.3272 25.3446 11.9129 24.9846 11.6167C24.6245 11.3204 24.1729 11.161 23.7083 11.166H21.7832C21.4181 11.1017 21.0437 11.1176 20.6853 11.2127C20.3269 11.3077 19.993 11.4796 19.7064 11.7167L19.1001 6.82187L22.9656 4.58862L23.3749 5.06281C25.198 7.3962 26.1719 10.2905 26.1337 13.2616C26.1078 13.4481 26.0673 13.6322 26.0125 13.8122L25.876 13.7664Z" fill="#FF0000"/>
<path d="M12.3239 18.3552L8.42806 19.0436L7.86719 13.7664H12.3239V18.3552Z" fill="#FF0000"/>
<path d="M18.1905 12.3593H13.7793V7.95404L17.6902 7.28101L18.1905 12.3593Z" fill="#FF0000"/>
<path d="M12.3242 7.95412V12.3594H7.9585C7.97272 10.6584 8.15041 8.96279 8.48905 7.29639L12.3242 7.95412Z" fill="#FF0000"/>
<path d="M13.7793 0C14.0993 0.207461 14.4079 0.43213 14.704 0.673033C15.4507 1.39887 16.0303 2.28135 16.4018 3.25809C16.7504 4.06879 17.0384 4.92538 17.3871 5.88904L13.7793 6.54678V0Z" fill="#FF0000"/>
<path d="M12.3242 6.53148L8.7771 5.90434C9.50472 3.60991 10.1565 1.40725 12.3242 0V6.53148Z" fill="#FF0000"/>
<path d="M21.9954 3.45694L18.706 5.41485C18.3573 4.46649 18.0845 3.5946 17.7055 2.76861C17.3265 1.94261 16.8566 1.23899 16.417 0.351807C18.5021 0.905984 20.4187 1.97281 21.9954 3.45694V3.45694Z" fill="#FF0000"/>
<path d="M9.83811 0.305908C8.71986 1.83823 7.91591 3.58032 7.47335 5.43014L4.13843 3.45693C5.74997 1.9459 7.70866 0.863052 9.83811 0.305908V0.305908Z" fill="#FF0000"/>
<path d="M9.85336 25.8811C7.76442 25.3384 5.83883 24.2881 4.24463 22.8218L7.4886 20.8486C7.9461 22.6649 8.74926 24.3741 9.85336 25.8811V25.8811Z" fill="#FF0000"/>
<path d="M8.82251 20.4051L11.5662 19.885C11.2686 21.1938 11.2019 22.5452 11.3692 23.8773C11.4265 24.362 11.6585 24.8084 12.021 25.1316C12.1665 25.276 12.2702 25.4577 12.321 25.6572C12.3717 25.8566 12.3676 26.0663 12.309 26.2635C11.8962 25.9728 11.5059 25.6507 11.1418 25.2999C10.0022 23.8723 9.20811 22.1964 8.82251 20.4051V20.4051Z" fill="#FF0000"/>
<path d="M13.7793 14.9749V13.843H14.9162L13.7793 14.9749Z" fill="#FF0000"/>
<rect width="1.32604" height="41.7385" transform="matrix(0.805354 -0.592795 0.672228 0.740344 2.87427 0.785889)" fill="#FF0000"/>
<rect width="0.613435" height="41.7711" transform="matrix(0.805354 -0.592795 0.672228 0.740344 2.49902 1.07495)" fill="white"/>
</g>
<defs>
<clipPath id="clip0_228_47">
<rect width="32" height="32" fill="white"/>
</clipPath>
</defs>
</svg>
