<svg width="32" height="32" viewBox="0 0 32 32" fill="none" xmlns="http://www.w3.org/2000/svg">
<path fill-rule="evenodd" clip-rule="evenodd" d="M15.0992 0.0897305C13.9853 0.331418 12.9227 1.16154 12.4177 2.1846C11.8211 3.39335 11.8211 4.59285 12.4177 5.8016C12.9293 6.83804 13.9884 7.65773 15.1279 7.8991C17.9502 8.49698 20.4715 5.97567 19.8737 3.15335C19.4217 1.01979 17.2463 -0.376019 15.0992 0.0897305ZM12.3004 10.082C11.7197 10.2659 11.1737 10.7765 11.0036 11.2949C10.8773 11.6797 9.94934 18.901 9.99153 19.1708C10.0095 19.2857 10.0943 19.4716 10.1799 19.5838C10.4302 19.912 10.6762 19.9931 11.4222 19.9931H12.0767L12.113 20.2275C12.133 20.3564 12.3216 21.8118 12.5321 23.4618C12.9612 26.825 12.9942 26.9587 13.512 27.436C14.0591 27.9403 14.1597 27.9618 15.9677 27.9618H17.5614L17.9178 27.7868C18.356 27.5717 18.7993 27.0937 18.9313 26.6943C19.0001 26.4863 19.8427 20.3153 19.8427 20.0196C19.8427 20.005 20.1407 19.9931 20.5051 19.9931C20.9897 19.9931 21.2255 19.9656 21.3836 19.8905C21.6415 19.7682 21.8897 19.4612 21.942 19.1998C21.9628 19.0957 21.7637 17.3262 21.4995 15.2675C21.0832 12.0235 20.9979 11.4765 20.8599 11.1652C20.6761 10.7504 20.2837 10.3582 19.8537 10.1594C19.5663 10.0266 19.5032 10.0242 16.0614 10.0119C13.3052 10.002 12.506 10.017 12.3004 10.082ZM9.43641 22.5875C5.36603 23.307 2.94697 24.4653 2.19366 26.0556C2.02615 26.4092 2.00103 26.5308 2.00003 26.9931C1.99903 27.463 2.02215 27.5733 2.19984 27.9486C3.15391 29.9628 6.93259 31.3583 12.8427 31.8792C14.0295 31.9838 17.9058 31.9838 19.0927 31.8792C25.0027 31.3583 28.7814 29.9628 29.7355 27.9486C29.9132 27.5733 29.9363 27.463 29.9353 26.9931C29.9343 26.5308 29.9092 26.4092 29.7417 26.0556C29.0879 24.6756 27.179 23.6199 24.0302 22.8969C23.3424 22.739 21.5802 22.4192 21.5572 22.448C21.5512 22.4556 21.4913 22.8896 21.4242 23.4124L21.3023 24.363L21.4631 24.3952C21.5515 24.413 21.8911 24.4719 22.2177 24.5263C23.8247 24.7937 25.7277 25.3627 26.7177 25.8718C28.2184 26.6434 28.3243 27.1557 27.1357 27.8925C24.0648 29.7957 16.1495 30.5475 10.0017 29.5198C6.78341 28.9818 4.20728 27.9394 3.99378 27.0888C3.78909 26.2732 6.46803 25.0745 9.71853 24.5272C10.0446 24.4723 10.3835 24.413 10.4716 24.3953L10.6318 24.3633L10.521 23.5063C10.46 23.035 10.409 22.6001 10.4077 22.54C10.4047 22.41 10.4543 22.4076 9.43641 22.5875Z" fill="#FF0000"/>
<rect x="5.53833" y="2.38245" width="0.712941" height="36.2005" transform="rotate(-37.2448 5.53833 2.38245)" fill="white"/>
<rect x="5.96765" y="2.0332" width="0.76167" height="36.2236" transform="rotate(-37.2448 5.96765 2.0332)" fill="black"/>
</svg>
